<svg width="96" height="97" viewBox="0 0 96 97" fill="none" xmlns="http://www.w3.org/2000/svg">
<path d="M34.5962 0.0908813C32.1316 0.0908813 29.9275 1.20345 28.3267 2.62011C26.7259 4.03677 25.5428 5.78055 24.5334 7.76373C22.8808 11.0108 21.7323 14.9907 21.0123 19.4561L8.91247 22.9391L0 85.5567L59.2438 96.0909L60.0779 95.9291L96 89.0908L84.3392 15.7857L63.1951 7.32942L58.673 8.63235C57.9466 7.23049 57.1344 5.92617 56.1881 4.77464C54.0672 2.19389 51.0064 0.0908813 47.3107 0.0908813C44.7175 0.0908813 42.5987 1.27879 40.7339 2.79043C39.0552 1.29914 37.106 0.0908813 34.5962 0.0908813ZM34.5962 8.81119C34.3062 8.81119 34.6964 8.69909 35.6323 9.9949C36.3306 10.9618 37.08 12.6645 37.766 14.6446L30.7502 16.6629C31.2881 14.6493 31.927 12.9322 32.5942 11.6214C33.2578 10.3176 33.954 9.43992 34.3854 9.05815C34.8168 8.67638 34.7904 8.81119 34.5962 8.81119ZM47.3107 8.81119C47.4993 8.81119 48.0847 8.90583 49.1547 10.2078C49.352 10.4479 49.5567 10.8883 49.7605 11.1956L46.2307 12.209C45.9282 11.6143 45.622 11.0326 45.3614 10.3866C46.424 9.06714 47.1196 8.81119 47.3107 8.81119ZM59.3491 17.5315L55.029 86.4764L10.0891 78.4885L17.0259 29.7007L59.3491 17.5315ZM68.2792 18.7918L76.2257 21.9683L85.7968 82.1503L64.0556 86.2891L68.2792 18.7918ZM40.7339 34.9891C30.061 34.9891 24.7969 41.9735 24.7969 49.1852C24.7969 57.8008 33.481 58.0217 33.481 63.2364C33.481 64.5053 32.555 66.2341 30.2936 66.2341C26.8723 66.2341 22.8124 62.7851 22.8124 62.7851L20.7314 69.4957C20.7314 69.4957 24.615 74.2135 32.3746 74.2135C38.7991 74.2135 43.5525 69.4517 43.5525 62.0613C43.5525 52.6782 32.9278 51.1394 32.9278 47.1499C32.9278 46.4261 33.1676 43.471 37.9241 43.471C41.1116 43.471 43.7896 44.8761 43.7896 44.8761L46.7487 36.1303C46.7487 36.1303 44.7127 34.9455 40.7339 34.9891Z" fill="#1E2759"/>
</svg>
